# xmcd
#
# Track frame offsets:
#	150
#	20179
#	28548
#	39298
#	56764
#	68547
#	81267
#	91234
#	104173
#	115961
#	127817
#	143050
#	157582
#	168693
#	182337
#	196554
#	212248
#	230272
#	249247
#	264586
#	283648
#	313577
#
# Disc length: 4429 seconds
#
# Revision: 0
# Processed by: cddbd v1.5PL3 Copyright (c) Steve Scherf et al.
# Submitted via: audiograbber 1.82.01
#
DISCID=24114b16
DTITLE=Joe Dassin - Star profile
DYEAR=2000
DGENRE=
TTITLE0=L'ete indien
TTITLE1=Il faut naitre a Monaco
TTITLE2=L'amerique
TTITLE3=Le cafe des 3 colombes
TTITLE4=Les Champs Elysees
TTITLE5=A toi
TTITLE6=Bip, bip
TTITLE7=Guantanamera
TTITLE8=Siffler sur la colline
TTITLE9=Les dalton
TTITLE10=Le petit pain au chocolat
TTITLE11=Si tu t'appelles melancolie
TTITLE12=Le chemin de papa
TTITLE13=Ca va pas changer le monde
TTITLE14=L'equipe a Jojo
TTITLE15=Le dernier slow (Blu)
TTITLE16=Salut les amoureaux
TTITLE17=The guitar don't lie (Le marche aux puces)
TTITLE18=Et si tu n'existais pas
TTITLE19=polk salad Annie
TTITLE20=Le jardin du Luxembourg
TTITLE21=Pick a bale o'cotton
EXTD=
EXTT0=
EXTT1=
EXTT2=
EXTT3=
EXTT4=
EXTT5=
EXTT6=
EXTT7=
EXTT8=
EXTT9=
EXTT10=
EXTT11=
EXTT12=
EXTT13=
EXTT14=
EXTT15=
EXTT16=
EXTT17=
EXTT18=
EXTT19=
EXTT20=
EXTT21=
PLAYORDER=
